<svg width="512" height="512" viewBox="0 0 512 512" fill="none" xmlns="http://www.w3.org/2000/svg">
  <rect width="512" height="512" rx="112" fill="url(#bg-gradient)"/>
  
  <!-- Stylized "DI" Monogram + Analytics Chart -->
  <path d="M140 160V352C140 374.091 157.909 392 180 392H240C293.02 392 336 348.98 336 296C336 243.02 293.02 200 240 200H188V160H140Z" fill="url(#di-gradient)"/>
  <path d="M188 248H240C266.51 248 288 269.49 288 296C288 322.51 266.51 344 240 344H188V248Z" fill="#020617"/>
  
  <rect x="360" y="160" width="48" height="232" rx="16" fill="url(#accent-gradient)"/>
  
  <defs>
    <linearGradient id="bg-gradient" x1="0" y1="0" x2="512" y2="512" gradientUnits="userSpaceOnUse">
      <stop stop-color="#0F172A"/>
      <stop offset="1" stop-color="#020617"/>
    </linearGradient>
    <linearGradient id="di-gradient" x1="140" y1="200" x2="336" y2="392" gradientUnits="userSpaceOnUse">
      <stop stop-color="#38BDF8"/>
      <stop offset="1" stop-color="#818CF8"/>
    </linearGradient>
    <linearGradient id="accent-gradient" x1="360" y1="160" x2="408" y2="392" gradientUnits="userSpaceOnUse">
      <stop stop-color="#E2E8F0"/>
      <stop offset="1" stop-color="#94A3B8"/>
    </linearGradient>
  </defs>
</svg>